Patient4_TMGait_0pt5_02_left_12_GRF.mot
version=1
nRows=71
nColumns=19
inDegrees=no
endheader
time	F1x	F1y	F1z	M1x	M1y	M1z	F2x	F2y	F2z	M2x	M2y	M2z	EC1x	EC1y	EC1z	EC2x	EC2y	EC2z
15.05	-6.7125	16.4597	-9.6652	-1.0103	4.616	15.9251	-15.5895	733.5287	-57.2343	268.4492	50.4477	596.5673	-0.0592	0.0182	-0.0073	-0.0462	0.0165	0.9585
15.0628	-4.5846	11.5709	-6.5185	-0.8433	3.0636	11.0773	-13.32	733.3223	-56.3723	268.6121	48.9458	595.5985	-0.0592	0.0182	-0.0073	-0.0462	0.0165	0.9585
15.0756	-2.7802	7.4303	-3.805	-0.70846	1.7099	6.9844	-11.1982	735.1191	-55.4579	269.4512	47.3911	595.5153	-0.0592	0.0182	-0.0073	-0.0462	0.0165	0.9585
15.0884	-1.4028	4.2759	-1.7117	-0.61404	0.65952	3.8863	-9.4635	739.1921	-54.5449	271.0334	45.9073	596.6146	-0.0592	0.0182	-0.0073	-0.0462	0.0165	0.9585
15.1011	-0.46936	2.1074	-0.24957	-0.55996	-0.081295	1.7895	-8.2249	745.3893	-53.6865	273.2899	44.5908	598.9248	-0.0592	0.0182	-0.0073	-0.0462	0.0165	0.9585
15.1139	0.09105	0.77934	0.6597	-0.53739	-0.54898	0.53432	-7.4525	753.2102	-52.9008	276.0397	43.4661	602.1963	-0.0592	0.0182	-0.0073	-0.0462	0.0165	0.9585
15.1267	0.3546	0.083482	1.1464	-0.52975	-0.81682	-0.096635	-7.0358	761.9033	-52.1875	279.0187	42.5078	605.9558	-0.0592	0.0182	-0.0073	-0.0462	0.0165	0.9585
15.1395	0.40695	-0.19917	1.3361	-0.51906	-0.94717	-0.33231	-6.8027	770.5956	-51.5141	281.9238	41.6393	609.5919	-0.0592	0.0182	-0.0073	-0.0462	0.0165	0.9585
15.1523	0.32272	-0.28614	1.3533	-0.4822	-1.0054	-0.38463	-6.5996	778.4263	-50.8535	284.4581	40.7913	612.4821	-0.0592	0.0182	-0.0073	-0.0462	0.0165	0.9585
15.1651	0.1562	-0.36126	1.2829	-0.39522	-1.0327	-0.42227	-6.2944	784.62	-50.1862	286.3585	39.9033	614.0423	-0.0592	0.0182	-0.0073	-0.0462	0.0165	0.9585
15.1779	-0.042008	-0.59022	1.1968	-0.22931	-1.0646	-0.60684	-5.7913	788.5819	-49.5154	287.4246	38.9428	613.8293	-0.0592	0.0182	-0.0073	-0.0462	0.0165	0.9585
15.1906	-0.2436	-1.1034	1.1229	0.044411	-1.1069	-1.0522	-5.0172	789.9474	-48.8434	287.5361	37.881	611.5737	-0.0592	0.0182	-0.0073	-0.0462	0.0165	0.9585
15.2034	-0.40617	-1.9917	1.0745	0.4482	-1.1504	-1.8495	-3.9302	788.6107	-48.1907	286.6587	36.718	607.2146	-0.0592	0.0182	-0.0073	-0.0462	0.0165	0.9585
15.2162	-0.49289	-3.2712	1.0398	0.98411	-1.1673	-3.01	-2.5341	784.6874	-47.5955	284.8326	35.4813	600.8673	-0.0592	0.0182	-0.0073	-0.0462	0.0165	0.9585
15.229	-0.4412	-4.8638	0.99324	1.6224	-1.1083	-4.467	-0.86275	778.503	-47.1152	282.1706	34.2257	592.8047	-0.0592	0.0182	-0.0073	-0.0462	0.0165	0.9585
15.2418	-0.1728	-6.5353	0.89343	2.2776	-0.907	-6.0035	1.0441	770.585	-46.8181	278.8583	33.0177	583.4538	-0.0592	0.0182	-0.0073	-0.0462	0.0165	0.9585
15.2546	0.4043	-7.8503	0.67964	2.785	-0.48075	-7.2229	3.1473	761.6014	-46.781	275.1357	31.9286	573.3324	-0.0592	0.0182	-0.0073	-0.0462	0.0165	0.9585
15.2674	1.3818	-8.1167	0.28939	2.8801	0.25493	-7.5025	5.4098	752.2763	-47.0572	271.2667	31.007	562.9845	-0.0592	0.0182	-0.0073	-0.0462	0.0165	0.9585
15.2801	2.8205	-6.3304	-0.34144	2.1802	1.379	-5.9429	7.8165	743.2435	-47.6618	267.4891	30.2651	552.871	-0.0592	0.0182	-0.0073	-0.0462	0.0165	0.9585
15.2929	4.7278	-1.18	-1.2559	0.18797	2.9329	-1.3737	10.3372	734.8977	-48.5602	263.959	29.6809	543.2928	-0.0592	0.0182	-0.0073	-0.0462	0.0165	0.9585
15.3057	6.9948	8.8877	-2.4633	-3.6829	4.8825	7.6031	12.9509	727.2464	-49.6723	260.6937	29.2076	534.2717	-0.0592	0.0182	-0.0073	-0.0462	0.0165	0.9585
15.3185	9.3465	25.451	-3.8946	-10.0265	7.0568	22.4015	15.598	719.8069	-50.8727	257.5353	28.7857	525.4888	-0.0592	0.0182	-0.0073	-0.0462	0.0165	0.9585
15.3313	11.2464	49.7531	-5.3626	-19.3066	9.078	44.1462	18.1741	711.627	-51.974	254.1564	28.3303	516.3006	-0.0592	0.0182	-0.0073	-0.0462	0.0165	0.9585
15.3441	11.8592	82.0992	-6.5026	-31.6287	10.2963	73.1165	20.5449	701.4139	-52.7526	250.1052	27.7493	505.8456	-0.0592	0.0182	-0.0073	-0.0462	0.0165	0.9585
15.3569	10.2089	121.2052	-6.8073	-46.4864	9.8816	108.1704	22.5367	687.7674	-52.9547	244.8916	26.9433	493.2099	-0.0592	0.0182	-0.0073	-0.0462	0.0165	0.9585
15.3696	5.9407	163.7609	-5.6291	-62.5889	7.1087	146.3315	23.9851	669.4988	-52.3819	238.1002	25.856	477.6267	-0.0592	0.0182	-0.0073	-0.0462	0.0165	0.9585
15.3824	0.2714	204.944	-2.2504	-78.0654	1.7848	183.1887	24.7686	646.0341	-50.9326	229.5328	24.4771	458.7556	-0.0592	0.0182	-0.0073	-0.0462	0.0165	0.9585
15.3952	-5.23	240.7176	3.1748	-91.3961	-5.3044	214.8988	24.8698	617.736	-48.6847	219.3194	22.8788	436.8687	-0.0592	0.0182	-0.0073	-0.0462	0.0165	0.9585
15.408	-9.5922	270.1542	9.6589	-102.2775	-12.8589	240.4256	24.39	585.9274	-45.8779	207.9238	21.1815	412.8772	-0.0592	0.0182	-0.0073	-0.0462	0.0165	0.9585
15.4208	-12.5117	294.7154	16.3838	-111.3237	-20.0145	261.0493	23.561	552.4568	-42.8595	195.9953	19.5285	388.0237	-0.0592	0.0182	-0.0073	-0.0462	0.0165	0.9585
15.4336	-14.046	316.4945	22.3979	-119.3987	-25.9348	278.664	22.6372	519.2113	-39.8887	184.1995	17.9853	363.5773	-0.0592	0.0182	-0.0073	-0.0462	0.0165	0.9585
15.4464	-14.4504	337.069	27.225	-127.1464	-30.314	294.7749	21.8516	487.6784	-37.1005	173.0652	16.55	340.5215	-0.0592	0.0182	-0.0073	-0.0462	0.0165	0.9585
15.4591	-13.9426	357.1733	30.4176	-134.8794	-32.8638	310.0592	21.3738	458.7405	-34.5029	162.9028	15.1522	319.4334	-0.0592	0.0182	-0.0073	-0.0462	0.0165	0.9585
15.4719	-12.7989	376.9109	32.0284	-142.6256	-33.7684	324.6906	21.3028	432.5241	-32.1111	153.7473	13.7523	300.3835	-0.0592	0.0182	-0.0073	-0.0462	0.0165	0.9585
15.4847	-11.2261	396.0754	32.1696	-150.2785	-33.2168	338.5524	21.6698	408.4384	-29.9431	145.3715	12.3281	282.9394	-0.0592	0.0182	-0.0073	-0.0462	0.0165	0.9585
15.4975	-9.3758	414.4454	31.4025	-157.6915	-31.7638	351.5595	22.393	385.4163	-28.0484	137.3721	10.9238	266.3525	-0.0592	0.0182	-0.0073	-0.0462	0.0165	0.9585
15.5103	-7.3945	431.8797	30.2609	-164.752	-29.9105	363.6308	23.2938	362.1745	-26.4228	129.2709	9.5863	249.7245	-0.0592	0.0182	-0.0073	-0.0462	0.0165	0.9585
15.5231	-5.5	448.4986	29.422	-171.4512	-28.3152	374.9039	24.0609	337.518	-25.0101	120.6262	8.3874	232.2497	-0.0592	0.0182	-0.0073	-0.0462	0.0165	0.9585
15.5359	-3.8956	465.023	29.269	-178.0298	-27.3637	385.9865	24.3579	310.6288	-23.695	111.1391	7.3869	213.3726	-0.0592	0.0182	-0.0073	-0.0462	0.0165	0.9585
15.5486	-2.6973	482.7852	30.0836	-184.9774	-27.3388	397.9664	23.848	281.2461	-22.3572	100.7158	6.6451	192.9295	-0.0592	0.0182	-0.0073	-0.0462	0.0165	0.9585
15.5614	-1.9226	503.3956	31.7732	-192.9142	-28.1548	412.114	22.3272	249.7186	-20.9027	89.488	6.1869	171.1522	-0.0592	0.0182	-0.0073	-0.0462	0.0165	0.9585
15.5742	-1.4897	528.1709	34.2292	-202.3523	-29.699	429.451	19.7907	216.9565	-19.3119	77.787	6.0119	148.6475	-0.0592	0.0182	-0.0073	-0.0462	0.0165	0.9585
15.587	-1.32	557.6258	37.2423	-213.5019	-31.7581	450.3428	16.4496	184.1889	-17.6166	66.0588	6.0624	126.2151	-0.0592	0.0182	-0.0073	-0.0462	0.0165	0.9585
15.5998	-1.3258	591.3031	40.759	-226.1944	-34.2564	474.3744	12.6539	152.6785	-15.8785	54.7619	6.2469	104.6669	-0.0592	0.0182	-0.0073	-0.0462	0.0165	0.9585
15.6126	-1.4224	627.9342	44.6737	-239.948	-37.0676	500.5013	8.7826	123.4981	-14.1335	44.2854	6.4482	84.707	-0.0592	0.0182	-0.0073	-0.0462	0.0165	0.9585
15.6254	-1.4939	665.6585	48.9182	-254.0556	-40.1024	527.2342	5.1549	97.341	-12.3779	34.887	6.5478	66.7891	-0.0592	0.0182	-0.0073	-0.0462	0.0165	0.9585
15.6381	-1.4562	702.3644	53.2763	-267.7227	-43.1519	552.916	1.9612	74.5572	-10.5969	26.7002	6.4644	51.1772	-0.0592	0.0182	-0.0073	-0.0462	0.0165	0.9585
15.6509	-1.2521	736.0306	57.5148	-280.1909	-46.0155	576.0007	-0.65321	55.1975	-8.8035	19.7499	6.1658	37.9132	-0.0592	0.0182	-0.0073	-0.0462	0.0165	0.9585
15.6637	-0.8477	764.9731	61.3233	-290.8374	-48.4294	595.2348	-2.5944	39.1377	-7.0198	13.9924	5.6375	26.9328	-0.0592	0.0182	-0.0073	-0.0462	0.0165	0.9585
15.6765	-0.23698	787.9974	64.5063	-299.2193	-50.2445	609.7838	-3.7592	26.1588	-5.2963	9.3497	4.8795	18.0788	-0.0592	0.0182	-0.0073	-0.0462	0.0165	0.9585
15.6893	0.56007	804.4118	66.9286	-305.0801	-51.3628	619.2064	-4.1003	16.0471	-3.7006	5.7413	3.922	11.2019	-0.0592	0.0182	-0.0073	-0.0462	0.0165	0.9585
15.7021	1.511	814.0171	68.5885	-308.3366	-51.805	623.4609	-3.7147	8.6028	-2.3139	3.0903	2.8559	6.1498	-0.0592	0.0182	-0.0073	-0.0462	0.0165	0.9585
15.7149	2.5574	817.0954	69.5275	-309.0854	-51.6294	622.8715	-2.9477	3.6096	-1.217	1.3129	1.8528	2.7787	-0.0592	0.0182	-0.0073	-0.0462	0.0165	0.9585
15.7276	3.6306	814.4023	69.8527	-307.5999	-50.9567	618.1063	-2.0733	0.64717	-0.44635	0.25782	1.0375	0.81452	-0.0592	0.0182	-0.0073	-0.0462	0.0165	0.9585
15.7404	4.6847	807.1276	69.6708	-304.3203	-49.8959	610.1295	-1.2616	-0.78778	0.051661	-0.25318	0.42691	-0.087528	-0.0592	0.0182	-0.0073	-0.0462	0.0165	0.9585
15.7532	5.7041	796.7235	69.1451	-299.7885	-48.5947	600.067	-0.59697	-1.1918	0.32037	-0.39561	0.024397	-0.29418	-0.0592	0.0182	-0.0073	-0.0462	0.0165	0.9585
15.766	6.6899	784.6775	68.4357	-294.566	-47.1879	589.0187	-0.1118	-0.95976	0.43751	-0.31035	-0.21673	-0.081676	-0.0592	0.0182	-0.0073	-0.0462	0.0165	0.9585
15.7788	7.653	772.3536	67.7008	-289.1751	-45.8071	577.9545	0.20477	-0.40331	0.44642	-0.10808	-0.3263	0.3349	-0.0592	0.0182	-0.0073	-0.0462	0.0165	0.9585
15.7916	8.6062	760.913	67.0359	-284.0693	-44.5277	567.6734	0.36764	0.26497	0.40307	0.13667	-0.35044	0.81144	-0.0592	0.0182	-0.0073	-0.0462	0.0165	0.9585
15.8044	9.5532	751.225	66.5016	-279.5955	-43.39	558.7308	0.40834	0.9055	0.32885	0.373	-0.30805	1.2566	-0.0592	0.0182	-0.0073	-0.0462	0.0165	0.9585
15.8171	10.4832	743.8211	66.1051	-275.9776	-42.3917	551.4331	0.35812	1.4432	0.25388	0.57238	-0.22968	1.6209	-0.0592	0.0182	-0.0073	-0.0462	0.0165	0.9585
15.8299	11.4076	738.8669	65.8513	-273.3039	-41.5237	545.8209	0.2407	1.8229	0.18122	0.71259	-0.12451	1.8564	-0.0592	0.0182	-0.0073	-0.0462	0.0165	0.9585
15.8427	12.3663	736.2631	65.7146	-271.5558	-40.7459	541.7558	0.086183	1.9959	0.12269	0.77493	-0.018431	1.9215	-0.0592	0.0182	-0.0073	-0.0462	0.0165	0.9585
15.8555	13.4047	735.7472	65.6713	-270.6419	-40.0171	538.9919	-0.079727	1.8987	0.075184	0.73502	0.077113	1.7677	-0.0592	0.0182	-0.0073	-0.0462	0.0165	0.9585
15.8683	14.5838	736.9803	65.6919	-270.4332	-39.2902	537.2506	-0.22165	1.4524	0.04227	0.56468	0.15015	1.3218	-0.0592	0.0182	-0.0073	-0.0462	0.0165	0.9585
15.8811	15.951	739.5942	65.7576	-270.782	-38.5311	536.261	-0.34304	0.60329	0.0215	0.24157	0.20592	0.53976	-0.0592	0.0182	-0.0073	-0.0462	0.0165	0.9585
15.8939	17.5419	743.2335	65.8607	-271.538	-37.7185	535.7769	-0.44029	-0.68314	0.02527	-0.24904	0.23218	-0.61873	-0.0592	0.0182	-0.0073	-0.0462	0.0165	0.9585
15.9066	19.3595	747.5466	66.0087	-272.547	-36.8519	535.5818	-0.49412	-2.4063	0.059031	-0.90948	0.21691	-2.1594	-0.0592	0.0182	-0.0073	-0.0462	0.0165	0.9585
15.9194	21.3966	752.1501	66.2177	-273.6438	-35.9456	535.4473	-0.45275	-4.4816	0.14083	-1.708	0.12364	-4.0137	-0.0592	0.0182	-0.0073	-0.0462	0.0165	0.9585
15.9322	23.617	756.5994	66.4995	-274.6443	-35.0187	535.1145	-0.23626	-6.6818	0.26878	-2.5569	-0.076245	-5.9806	-0.0592	0.0182	-0.0073	-0.0462	0.0165	0.9585
15.945	25.9975	760.3853	66.8506	-275.3514	-34.0778	534.2672	0.25396	-8.5627	0.4516	-3.2807	-0.42992	-7.6612	-0.0592	0.0182	-0.0073	-0.0462	0.0165	0.9585
